<mxfile host="app.diagrams.net" modified="2023-10-31T19:50:28.488Z" agent="Mozilla/5.0 (Windows NT 10.0; Win64; x64) AppleWebKit/537.36 (KHTML, like Gecko) Chrome/118.0.0.0 Safari/537.36" etag="e6bZXZy58rYzceQXz9hC" version="22.0.8" type="device">
  <diagram name="Page-1" id="XIcXPo0OpUYYO-JfJ5qW">
    <mxGraphModel dx="2074" dy="1166" grid="1" gridSize="10" guides="1" tooltips="1" connect="1" arrows="1" fold="1" page="1" pageScale="1" pageWidth="827" pageHeight="1169" math="0" shadow="0">
      <root>
        <mxCell id="0" />
        <mxCell id="1" parent="0" />
        <mxCell id="d4ZhMKMYnwxRgAiM2H0Y-1" value="School" style="swimlane;fontStyle=2;align=center;verticalAlign=top;childLayout=stackLayout;horizontal=1;startSize=26;horizontalStack=0;resizeParent=1;resizeLast=0;collapsible=1;marginBottom=0;rounded=0;shadow=0;strokeWidth=1;" vertex="1" parent="1">
          <mxGeometry x="310" y="300" width="220" height="34" as="geometry">
            <mxRectangle x="230" y="140" width="160" height="26" as="alternateBounds" />
          </mxGeometry>
        </mxCell>
        <mxCell id="d4ZhMKMYnwxRgAiM2H0Y-2" value="" style="line;html=1;strokeWidth=1;align=left;verticalAlign=middle;spacingTop=-1;spacingLeft=3;spacingRight=3;rotatable=0;labelPosition=right;points=[];portConstraint=eastwest;" vertex="1" parent="d4ZhMKMYnwxRgAiM2H0Y-1">
          <mxGeometry y="26" width="220" height="8" as="geometry" />
        </mxCell>
        <mxCell id="d4ZhMKMYnwxRgAiM2H0Y-3" style="edgeStyle=orthogonalEdgeStyle;rounded=0;orthogonalLoop=1;jettySize=auto;html=1;endArrow=diamondThin;endFill=1;" edge="1" parent="1" source="d4ZhMKMYnwxRgAiM2H0Y-4" target="d4ZhMKMYnwxRgAiM2H0Y-1">
          <mxGeometry relative="1" as="geometry">
            <mxPoint x="520" y="674.9999999999998" as="sourcePoint" />
          </mxGeometry>
        </mxCell>
        <mxCell id="d4ZhMKMYnwxRgAiM2H0Y-4" value="Department" style="swimlane;fontStyle=2;align=center;verticalAlign=top;childLayout=stackLayout;horizontal=1;startSize=26;horizontalStack=0;resizeParent=1;resizeLast=0;collapsible=1;marginBottom=0;rounded=0;shadow=0;strokeWidth=1;" vertex="1" parent="1">
          <mxGeometry x="310" y="410" width="220" height="34" as="geometry">
            <mxRectangle x="230" y="140" width="160" height="26" as="alternateBounds" />
          </mxGeometry>
        </mxCell>
        <mxCell id="d4ZhMKMYnwxRgAiM2H0Y-5" value="" style="line;html=1;strokeWidth=1;align=left;verticalAlign=middle;spacingTop=-1;spacingLeft=3;spacingRight=3;rotatable=0;labelPosition=right;points=[];portConstraint=eastwest;" vertex="1" parent="d4ZhMKMYnwxRgAiM2H0Y-4">
          <mxGeometry y="26" width="220" height="8" as="geometry" />
        </mxCell>
        <mxCell id="d4ZhMKMYnwxRgAiM2H0Y-6" style="edgeStyle=orthogonalEdgeStyle;rounded=0;orthogonalLoop=1;jettySize=auto;html=1;endArrow=block;endFill=0;" edge="1" parent="1" source="d4ZhMKMYnwxRgAiM2H0Y-7" target="d4ZhMKMYnwxRgAiM2H0Y-4">
          <mxGeometry relative="1" as="geometry" />
        </mxCell>
        <mxCell id="d4ZhMKMYnwxRgAiM2H0Y-7" value="Computer Science" style="swimlane;fontStyle=2;align=center;verticalAlign=top;childLayout=stackLayout;horizontal=1;startSize=26;horizontalStack=0;resizeParent=1;resizeLast=0;collapsible=1;marginBottom=0;rounded=0;shadow=0;strokeWidth=1;" vertex="1" parent="1">
          <mxGeometry x="490" y="560" width="220" height="34" as="geometry">
            <mxRectangle x="230" y="140" width="160" height="26" as="alternateBounds" />
          </mxGeometry>
        </mxCell>
        <mxCell id="d4ZhMKMYnwxRgAiM2H0Y-8" value="" style="line;html=1;strokeWidth=1;align=left;verticalAlign=middle;spacingTop=-1;spacingLeft=3;spacingRight=3;rotatable=0;labelPosition=right;points=[];portConstraint=eastwest;" vertex="1" parent="d4ZhMKMYnwxRgAiM2H0Y-7">
          <mxGeometry y="26" width="220" height="8" as="geometry" />
        </mxCell>
        <mxCell id="d4ZhMKMYnwxRgAiM2H0Y-9" style="edgeStyle=orthogonalEdgeStyle;rounded=0;orthogonalLoop=1;jettySize=auto;html=1;endArrow=block;endFill=0;" edge="1" parent="1" source="d4ZhMKMYnwxRgAiM2H0Y-10" target="d4ZhMKMYnwxRgAiM2H0Y-4">
          <mxGeometry relative="1" as="geometry" />
        </mxCell>
        <mxCell id="d4ZhMKMYnwxRgAiM2H0Y-10" value="Maths" style="swimlane;fontStyle=2;align=center;verticalAlign=top;childLayout=stackLayout;horizontal=1;startSize=26;horizontalStack=0;resizeParent=1;resizeLast=0;collapsible=1;marginBottom=0;rounded=0;shadow=0;strokeWidth=1;" vertex="1" parent="1">
          <mxGeometry x="140" y="560" width="220" height="34" as="geometry">
            <mxRectangle x="230" y="140" width="160" height="26" as="alternateBounds" />
          </mxGeometry>
        </mxCell>
        <mxCell id="d4ZhMKMYnwxRgAiM2H0Y-11" value="" style="line;html=1;strokeWidth=1;align=left;verticalAlign=middle;spacingTop=-1;spacingLeft=3;spacingRight=3;rotatable=0;labelPosition=right;points=[];portConstraint=eastwest;" vertex="1" parent="d4ZhMKMYnwxRgAiM2H0Y-10">
          <mxGeometry y="26" width="220" height="8" as="geometry" />
        </mxCell>
        <mxCell id="d4ZhMKMYnwxRgAiM2H0Y-12" style="edgeStyle=orthogonalEdgeStyle;rounded=0;orthogonalLoop=1;jettySize=auto;html=1;endArrow=diamondThin;endFill=0;" edge="1" parent="1" source="d4ZhMKMYnwxRgAiM2H0Y-14" target="d4ZhMKMYnwxRgAiM2H0Y-7">
          <mxGeometry relative="1" as="geometry" />
        </mxCell>
        <mxCell id="d4ZhMKMYnwxRgAiM2H0Y-13" style="edgeStyle=orthogonalEdgeStyle;rounded=0;orthogonalLoop=1;jettySize=auto;html=1;endArrow=diamondThin;endFill=0;" edge="1" parent="1" source="d4ZhMKMYnwxRgAiM2H0Y-14" target="d4ZhMKMYnwxRgAiM2H0Y-10">
          <mxGeometry relative="1" as="geometry" />
        </mxCell>
        <mxCell id="d4ZhMKMYnwxRgAiM2H0Y-14" value="Teacher" style="swimlane;fontStyle=2;align=center;verticalAlign=top;childLayout=stackLayout;horizontal=1;startSize=26;horizontalStack=0;resizeParent=1;resizeLast=0;collapsible=1;marginBottom=0;rounded=0;shadow=0;strokeWidth=1;" vertex="1" parent="1">
          <mxGeometry x="310" y="670" width="220" height="34" as="geometry">
            <mxRectangle x="230" y="140" width="160" height="26" as="alternateBounds" />
          </mxGeometry>
        </mxCell>
        <mxCell id="d4ZhMKMYnwxRgAiM2H0Y-15" value="" style="line;html=1;strokeWidth=1;align=left;verticalAlign=middle;spacingTop=-1;spacingLeft=3;spacingRight=3;rotatable=0;labelPosition=right;points=[];portConstraint=eastwest;" vertex="1" parent="d4ZhMKMYnwxRgAiM2H0Y-14">
          <mxGeometry y="26" width="220" height="8" as="geometry" />
        </mxCell>
      </root>
    </mxGraphModel>
  </diagram>
</mxfile>
